<?xml version="1.0" encoding="utf-8"?>
<!-- Generator: Adobe Illustrator 16.0.0, SVG Export Plug-In . SVG Version: 6.00 Build 0)  -->
<!DOCTYPE svg PUBLIC "-//W3C//DTD SVG 1.1//EN" "http://www.w3.org/Graphics/SVG/1.1/DTD/svg11.dtd">
<svg version="1.1" id="Layer_1" xmlns="http://www.w3.org/2000/svg" xmlns:xlink="http://www.w3.org/1999/xlink" x="0px" y="0px"
	 width="27px" height="27px" viewBox="5 5 27 27" enable-background="new 5 5 27 27" xml:space="preserve">
<rect x="5" y="5.041" fill="none" width="27.095" height="26.958"/>
<path fill="#4d4d4d" d="M18.56,5.015C11.072,5.015,5,11.056,5,18.506c0,7.451,6.072,13.492,13.56,13.492c7.488,0,13.561-6.041,13.561-13.492
	S26.048,5.015,18.56,5.015L18.56,5.015z"/>
<polygon fill="#FFFFFF" points="19.452,11 17.633,11 17.633,14.632 14,14.632 14,16.45 17.633,16.45 17.633,20.081 19.452,20.081
	19.452,16.45 23.083,16.45 23.083,14.632 19.452,14.632 "/>
<polyline fill="none" stroke="#FFFFFF" stroke-width="2" stroke-miterlimit="10" points="25.291,19.083 21.916,25.833
	15.166,25.833 11.792,19.083 "/>
</svg>
