<?xml version="1.0" encoding="utf-8"?>
<!-- Generator: Adobe Illustrator 16.0.0, SVG Export Plug-In . SVG Version: 6.00 Build 0)  -->
<!DOCTYPE svg PUBLIC "-//W3C//DTD SVG 1.1//EN" "http://www.w3.org/Graphics/SVG/1.1/DTD/svg11.dtd">
<svg version="1.1" id="Layer_1" xmlns="http://www.w3.org/2000/svg" xmlns:xlink="http://www.w3.org/1999/xlink" x="0px" y="0px"
	 width="27px" height="27px" viewBox="0 0 27 27" enable-background="new 0 0 27 27" xml:space="preserve">
<path fill="#4d4d4d" d="M13.5,0C6.045,0,0,6.037,0,13.484c0,7.448,6.045,13.484,13.5,13.484c7.457,0,13.5-6.036,13.5-13.484
	C27,6.037,20.957,0,13.5,0L13.5,0z"/>
<path fill="#4D4D4D" d="M20.208,19.479"/>
<rect fill="none" width="27" height="27"/>
<g>
	<path fill="#FFFFFF" d="M13.311,8.38c-4.222,0-7.685,3.069-7.911,6.92h15.825C20.998,11.449,17.535,8.38,13.311,8.38L13.311,8.38z
		 M13.311,8.38"/>
	<path fill="#FFFFFF" d="M4.822,17.628c0.349,0.696,1.059,1.134,1.837,1.132h13.302c0.781,0.002,1.492-0.436,1.841-1.132
		l0.679-1.452H4.143L4.822,17.628z M4.822,17.628"/>
	<path fill="#FFFFFF" d="M14.359,7.563V6.842c0-0.617-0.502-1.118-1.119-1.118c-0.621,0-1.119,0.501-1.119,1.118v0.738
		C12.862,7.487,13.615,7.482,14.359,7.563L14.359,7.563z M14.359,7.563"/>
</g>
</svg>
