<?xml version="1.0" encoding="utf-8"?>
<!-- Generator: Adobe Illustrator 16.0.0, SVG Export Plug-In . SVG Version: 6.00 Build 0)  -->
<!DOCTYPE svg PUBLIC "-//W3C//DTD SVG 1.1//EN" "http://www.w3.org/Graphics/SVG/1.1/DTD/svg11.dtd">
<svg version="1.1" id="Layer_1" xmlns="http://www.w3.org/2000/svg" xmlns:xlink="http://www.w3.org/1999/xlink" x="0px" y="0px"
	 width="27px" height="27px" viewBox="0 0 27 27" enable-background="new 0 0 27 27" xml:space="preserve">
<g>
	<path fill="#4D4D4D" d="M13.5,0C6.045,0,0,6.037,0,13.484c0,7.448,6.045,13.484,13.5,13.484c7.457,0,13.5-6.036,13.5-13.484
		C27,6.037,20.957,0,13.5,0L13.5,0z"/>
	<polygon fill="#FFFFFF" points="19.582,7.491 13.496,12.297 7.211,7.491 	"/>
	<path fill="#FFFFFF" d="M20.208,19.479H6.584V9.521l6.279,4.758c0.17,0.129,0.419,0.191,0.619,0.191
		c0.205,0,0.385-0.066,0.556-0.201l6.17-4.902V19.479z"/>
	<path fill="#FFFFFF" d="M20.208,19.479"/>
	<rect fill="none" width="27" height="27"/>
</g>
</svg>
