<?xml version="1.0" encoding="utf-8"?>
<!-- Generator: Adobe Illustrator 16.0.0, SVG Export Plug-In . SVG Version: 6.00 Build 0)  -->
<!DOCTYPE svg PUBLIC "-//W3C//DTD SVG 1.1//EN" "http://www.w3.org/Graphics/SVG/1.1/DTD/svg11.dtd">
<svg version="1.1" id="Layer_1" xmlns="http://www.w3.org/2000/svg" xmlns:xlink="http://www.w3.org/1999/xlink" x="0px" y="0px"
	 width="27px" height="27px" viewBox="0 0 27 27" enable-background="new 0 0 27 27" xml:space="preserve">
<g>
	<g>
		<g>
			<path fill="#4d4d4d"
				d="M0,13.499C0,20.956,6.045,27,13.501,27S27,20.956,27,13.499C27,6.043,20.957,0,13.501,0S0,6.044,0,13.499L0,13.499z"/>
		</g>
		<path fill="#FFFFFF" stroke="#231F20" stroke-width="2" stroke-miterlimit="10" d="M18.75,8.251"/>
	</g>
	<g>
		<path fill="#FFFFFF" d="M13.491,4.848c-4.08,0-7.399,3.319-7.399,7.4c0,2.322,2.054,5.088,3.278,6.529
			c0.781,0.918,3.21,3.537,4.121,3.537c1.1,0,4.102-3.502,4.131-3.539c1.22-1.438,3.269-4.2,3.269-6.527
			C20.891,8.167,17.57,4.848,13.491,4.848L13.491,4.848z M18.17,12.192c0,2.566-2.087,4.651-4.65,4.651
			c-2.565,0-4.65-2.085-4.65-4.651c0-2.564,2.085-4.649,4.65-4.649C16.083,7.542,18.17,9.628,18.17,12.192L18.17,12.192z"/>
	</g>
</g>
</svg>
