<?xml version="1.0" encoding="utf-8"?>
<!-- Generator: Adobe Illustrator 16.0.0, SVG Export Plug-In . SVG Version: 6.00 Build 0)  -->
<!DOCTYPE svg PUBLIC "-//W3C//DTD SVG 1.1//EN" "http://www.w3.org/Graphics/SVG/1.1/DTD/svg11.dtd">
<svg version="1.1" id="Layer_1" xmlns="http://www.w3.org/2000/svg" xmlns:xlink="http://www.w3.org/1999/xlink" x="0px" y="0px"
	 width="27px" height="27px" viewBox="0 0 27 27" enable-background="new 0 0 27 27" xml:space="preserve">
<g>
	<g>
		<g>
			<path fill="#FFFFFF" d="M13.968,7.12c3.364,0,6.101,2.736,6.101,6.1c0,3.364-2.733,6.101-6.101,6.101
				c-3.363,0-6.1-2.735-6.1-6.101C7.868,9.856,10.604,7.12,13.968,7.12 M13.968,5.12c-4.474,0-8.1,3.626-8.1,8.1
				s3.626,8.101,8.1,8.101s8.101-3.627,8.101-8.101S18.441,5.12,13.968,5.12L13.968,5.12z"/>
		</g>
		<polyline fill="none" stroke="#FFFFFF" stroke-linecap="round" stroke-linejoin="round" stroke-miterlimit="10" points="
			16.031,15.891 13.5,13.22 13.5,9 		"/>
	</g>
</g>
<g>
	<g>
		<g>
			<g>
				<path d="M0,13.477C0,20.944,6.055,27,13.523,27s13.521-6.056,13.521-13.523S20.992-0.045,13.523-0.045S0,6.009,0,13.477
					L0,13.477z"/>
			</g>
			<path stroke="#231F20" stroke-width="2" stroke-miterlimit="10" d="M18.781,8.219"/>
		</g>
	</g>
	<rect x="5.045" y="4.875" fill="none" width="16.953" height="17.125"/>
	<path fill="#FFFFFF" d="M13.658,17.38l5.235,3.819l-1.982-6.221l5.235-3.677h-6.368l-2.12-6.368l-2.12,6.368H5.17l5.235,3.677
		l-1.982,6.221L13.658,17.38z M13.658,17.38"/>
</g>
</svg>
