<?xml version="1.0" encoding="utf-8"?>
<!-- Generator: Adobe Illustrator 16.0.0, SVG Export Plug-In . SVG Version: 6.00 Build 0)  -->
<!DOCTYPE svg PUBLIC "-//W3C//DTD SVG 1.1//EN" "http://www.w3.org/Graphics/SVG/1.1/DTD/svg11.dtd">
<svg version="1.1" id="Layer_1" xmlns="http://www.w3.org/2000/svg" xmlns:xlink="http://www.w3.org/1999/xlink" x="0px" y="0px"
	 width="27px" height="27px" viewBox="0 0 27 27" enable-background="new 0 0 27 27" xml:space="preserve">
<g>
	<g>
		<g>
			<path fill="#4d4d4d" d="M0.008,13.508c0,7.455,6.045,13.5,13.5,13.5s13.5-6.045,13.5-13.5c0-7.456-6.045-13.5-13.5-13.5
				S0.008,6.053,0.008,13.508L0.008,13.508z"/>
		</g>
		<path fill="#FFFFFF" stroke="#231F20" stroke-width="2" stroke-miterlimit="10" d="M18.757,8.259"/>
	</g>
	<g>
		<path fill="#FFFFFF" d="M8.122,20.834V6.517h4.639c1.758,0,2.903,0.072,3.438,0.215c0.82,0.215,1.507,0.682,2.061,1.401
			s0.83,1.649,0.83,2.788c0,0.879-0.159,1.618-0.479,2.217s-0.725,1.069-1.216,1.411s-0.991,0.568-1.499,0.68
			c-0.69,0.137-1.689,0.205-2.998,0.205h-1.885v5.4H8.122z M11.013,8.939v4.063h1.582c1.14,0,1.901-0.075,2.285-0.225
			s0.686-0.384,0.903-0.703s0.327-0.69,0.327-1.113c0-0.521-0.153-0.951-0.459-1.289s-0.693-0.55-1.162-0.635
			c-0.345-0.065-1.038-0.098-2.08-0.098H11.013z"/>
	</g>
</g>
</svg>
