<?xml version="1.0" encoding="utf-8"?>
<!-- Generator: Adobe Illustrator 16.0.0, SVG Export Plug-In . SVG Version: 6.00 Build 0)  -->
<!DOCTYPE svg PUBLIC "-//W3C//DTD SVG 1.1//EN" "http://www.w3.org/Graphics/SVG/1.1/DTD/svg11.dtd">
<svg version="1.1" id="Layer_1" xmlns="http://www.w3.org/2000/svg" xmlns:xlink="http://www.w3.org/1999/xlink" x="0px" y="0px"
	 width="27px" height="27px" viewBox="0 0 27 27" enable-background="new 0 0 27 27" xml:space="preserve">
<g>
	<g>
		<g>
			<path fill="#4d4d4d" d="M0.022,13.521c0,7.456,6.045,13.5,13.501,13.5c7.456,0,13.499-6.045,13.499-13.5c0-7.455-6.043-13.499-13.499-13.499
				C6.067,0.022,0.022,6.066,0.022,13.521L0.022,13.521z"/>
		</g>
		<path fill="#FFFFFF" stroke="#231F20" stroke-width="2" stroke-miterlimit="10" d="M18.771,8.272"/>
	</g>
	<g>
		<path fill="#FFFFFF" d="M19.246,7.181c-0.648-0.357-1.389-0.562-2.182-0.562c-1.396,0-2.646,0.638-3.474,1.636
			C12.76,7.257,11.51,6.619,10.11,6.619c-0.787,0-1.527,0.204-2.176,0.562c-1.396,0.772-2.337,2.252-2.337,3.957
			c0,0.485,0.081,0.953,0.224,1.39c0.773,3.484,7.771,7.876,7.771,7.876s6.988-4.393,7.766-7.876
			c0.143-0.437,0.224-0.904,0.224-1.39C21.58,9.433,20.637,7.955,19.246,7.181L19.246,7.181z"/>
	</g>
</g>
</svg>
