<?xml version="1.0" encoding="utf-8"?>
<!-- Generator: Adobe Illustrator 16.0.0, SVG Export Plug-In . SVG Version: 6.00 Build 0)  -->
<!DOCTYPE svg PUBLIC "-//W3C//DTD SVG 1.1//EN" "http://www.w3.org/Graphics/SVG/1.1/DTD/svg11.dtd">
<svg version="1.1" id="Layer_1" xmlns="http://www.w3.org/2000/svg" xmlns:xlink="http://www.w3.org/1999/xlink" x="0px" y="0px"
	 width="27px" height="27px" viewBox="0 0 27 27" enable-background="new 0 0 27 27" xml:space="preserve">
<g>
	<path  fill="#4D4D4D" d="M13.501,0C6.053,0,0,6.054,0,13.5C0,20.945,6.053,27,13.501,27C20.945,27,27,20.945,27,13.5C27,6.054,20.945,0,13.501,0
		L13.501,0z"/>
	<path fill="#FFFFFF" d="M13.501,23.732"/>
	<path fill="#FFFFFF" d="M15.68,17.855h-0.22V11.54c0-0.717-0.589-1.305-1.308-1.305h-2.72c-0.72,0-1.417,0.588-1.417,1.305v1.307
		c0,0.719,0.697,1.307,1.417,1.307h0.107v6.313c0,0.72,0.589,1.308,1.307,1.308h2.832c0.719,0,1.305-0.588,1.305-1.308v-1.307
		C16.982,18.443,16.396,17.855,15.68,17.855L15.68,17.855z"/>
	<path fill="#FFFFFF" d="M15.46,7.077c0,1.082-0.877,1.959-1.959,1.959S11.54,8.159,11.54,7.077c0-1.083,0.879-1.96,1.961-1.96
		S15.46,5.994,15.46,7.077L15.46,7.077z"/>
</g>
</svg>
