<?xml version="1.0" encoding="utf-8"?>
<!-- Generator: Adobe Illustrator 16.0.0, SVG Export Plug-In . SVG Version: 6.00 Build 0)  -->
<!DOCTYPE svg PUBLIC "-//W3C//DTD SVG 1.1//EN" "http://www.w3.org/Graphics/SVG/1.1/DTD/svg11.dtd">
<svg version="1.1" id="Layer_1" xmlns="http://www.w3.org/2000/svg" xmlns:xlink="http://www.w3.org/1999/xlink" x="0px" y="0px"
	 width="27px" height="27px" viewBox="0 0 27 27" enable-background="new 0 0 27 27" xml:space="preserve">
<g>
	<g>
		<g>
			<path fill="#4d4d4d" d="M0,13.499C0,20.955,6.045,27,13.501,27S27,20.955,27,13.499S20.957,0,13.501,0S0,6.044,0,13.499L0,13.499z"/>
		</g>
		<path fill="#FFFFFF" stroke="#231F20" stroke-width="2" stroke-miterlimit="10" d="M18.75,8.251"/>
	</g>
	<g>
		<path fill="#FFFFFF" d="M16.164,5.072c-0.079-0.068-0.188-0.108-0.303-0.108h-4.718c-0.113,0-0.223,0.04-0.3,0.108
			c-0.082,0.069-0.123,0.163-0.121,0.259l0.354,10.886c0.006,0.193,0.193,0.348,0.421,0.348h4.012c0.228,0,0.415-0.153,0.421-0.348
			l0.354-10.886C16.287,5.234,16.242,5.141,16.164,5.072L16.164,5.072z"/>
		<rect x="10.723" y="4.963" fill="none" width="5.75" height="17.457"/>
		<path fill="#FFFFFF" d="M15.5,18.396h-3.996c-0.231,0-0.419,0.16-0.419,0.358v3.142c0,0.196,0.188,0.356,0.419,0.356H15.5
			c0.232,0,0.423-0.16,0.423-0.356v-3.142C15.923,18.557,15.732,18.396,15.5,18.396L15.5,18.396z"/>
	</g>
</g>
</svg>
