<?xml version="1.0" encoding="utf-8"?>
<!-- Generator: Adobe Illustrator 16.0.0, SVG Export Plug-In . SVG Version: 6.00 Build 0)  -->
<!DOCTYPE svg PUBLIC "-//W3C//DTD SVG 1.1//EN" "http://www.w3.org/Graphics/SVG/1.1/DTD/svg11.dtd">
<svg version="1.1" id="Layer_1" xmlns="http://www.w3.org/2000/svg" xmlns:xlink="http://www.w3.org/1999/xlink" x="0px" y="0px"
	 width="27px" height="27px" viewBox="0 0 27 27" enable-background="new 0 0 27 27" xml:space="preserve">
<g>
	<g>
		<g>
			<path fill="#4D4D4D"
				d="M0,13.499C0,20.956,6.045,27,13.501,27S27,20.956,27,13.499C27,6.043,20.957,0,13.501,0S0,6.044,0,13.499L0,13.499z"/>
		</g>
		<path fill="#FFFFFF" stroke="#231F20" stroke-width="2" stroke-miterlimit="10" d="M18.75,8.251"/>
	</g>
	<g>
		<path fill="#FFFFFF" d="M20.869,9.466l-0.003,7.857c0,0.571-0.47,1.041-1.042,1.041l-7.269-0.003H7.467
			c-0.359,0-0.676-0.184-0.863-0.461c-0.113-0.168-0.179-0.366-0.179-0.582l0.002-7.856c0-0.572,0.469-1.042,1.042-1.042
			l12.357,0.004C20.398,8.425,20.869,8.892,20.869,9.466z"/>
		<rect x="6.425" y="10.13" width="14.442" height="1.781"/>
	</g>
</g>
</svg>
