<?xml version="1.0" encoding="utf-8"?>
<!-- Generator: Adobe Illustrator 16.0.0, SVG Export Plug-In . SVG Version: 6.00 Build 0)  -->
<!DOCTYPE svg PUBLIC "-//W3C//DTD SVG 1.1//EN" "http://www.w3.org/Graphics/SVG/1.1/DTD/svg11.dtd">
<svg version="1.1" id="Layer_1" xmlns="http://www.w3.org/2000/svg" xmlns:xlink="http://www.w3.org/1999/xlink" x="0px" y="0px"
	 width="27px" height="27px" viewBox="0 0 27 27" enable-background="new 0 0 27 27" xml:space="preserve">
<g>
	<g>
		<g>
			<path fill="#4d4d4d" d="M0,13.499C0,20.955,6.044,27,13.501,27C20.957,27,27,20.955,27,13.499S20.957,0,13.501,0C6.044,0,0,6.045,0,13.499
				L0,13.499z"/>
		</g>
		<path fill="#FFFFFF" stroke="#231F20" stroke-width="2" stroke-miterlimit="10" d="M18.749,8.25"/>
	</g>
	<path fill="#FFFFFF" d="M15.643,8.434l3.008,3.011l-7.616,7.62l-3.008-3.012L15.643,8.434z M20.936,7.708l-1.34-1.343
		c-0.519-0.52-1.361-0.52-1.883,0l-1.286,1.286l3.011,3.011l1.498-1.501C21.338,8.759,21.338,8.109,20.936,7.708L20.936,7.708z
		 M6.45,20.284c-0.057,0.248,0.167,0.467,0.413,0.407l3.354-0.813l-3.009-3.011L6.45,20.284z"/>
</g>
</svg>
