<?xml version="1.0" encoding="utf-8"?>
<!-- Generator: Adobe Illustrator 16.0.0, SVG Export Plug-In . SVG Version: 6.00 Build 0)  -->
<!DOCTYPE svg PUBLIC "-//W3C//DTD SVG 1.1//EN" "http://www.w3.org/Graphics/SVG/1.1/DTD/svg11.dtd">

<svg version="1.1" id="Layer_1" xmlns="http://www.w3.org/2000/svg" xmlns:xlink="http://www.w3.org/1999/xlink" x="0px" y="0px"
	 width="27px" height="27px" viewBox="0 0 27 27" enable-background="new 0 0 27 27" xml:space="preserve">
<g>
	<g>
		<path fill="#4d4d4d" d="M13.5,0C6.045,0,0,6.037,0,13.484c0,7.448,6.045,13.484,13.5,13.484c7.457,0,13.5-6.036,13.5-13.484
			C27,6.037,20.957,0,13.5,0L13.5,0z"/>
		<path fill="#4d4d4d" d="M20.208,19.479"/>
		<rect fill="none" width="27" height="27"/>
	</g>
	<g>
		<path fill="#FFFFFF" d="M16.031,6.101v2.68h2.68L16.031,6.101z M16.031,6.101"/>
		<path fill="#FFFFFF" d="M14.885,9.928V5.526H7.802V21.41h11.484V9.928H14.885z M17.371,18.828H9.716v-1.149h7.655V18.828z
			 M17.371,16.147H9.716V15h7.655V16.147z M17.371,13.469H9.716V12.32h7.655V13.469z M17.371,13.469"/>
	</g>
</g>
</svg>

