<?xml version="1.0" encoding="utf-8"?>
<!-- Generator: Adobe Illustrator 16.0.0, SVG Export Plug-In . SVG Version: 6.00 Build 0)  -->
<!DOCTYPE svg PUBLIC "-//W3C//DTD SVG 1.1//EN" "http://www.w3.org/Graphics/SVG/1.1/DTD/svg11.dtd">
<svg version="1.1" id="Layer_1" xmlns="http://www.w3.org/2000/svg" xmlns:xlink="http://www.w3.org/1999/xlink" x="0px" y="0px"
	 width="27px" height="27px" viewBox="0 0 27 27" enable-background="new 0 0 27 27" xml:space="preserve">
<g>
	<g>
		<path fill="#4d4d4d" d="M0,13.499C0,20.956,6.045,27,13.501,27S27,20.956,27,13.499C27,6.043,20.957,0,13.501,0S0,6.043,0,13.499L0,13.499z"/>
	</g>
	<path fill="#FFFFFF" d="M8.228,8.227C8.562,7.893,9.024,7.7,9.497,7.7c0.474,0,0.938,0.193,1.272,0.527
		c0.335,0.336,0.525,0.798,0.525,1.271c0,0.472-0.19,0.936-0.525,1.269c-0.335,0.335-0.797,0.528-1.272,0.528
		c-0.473,0-0.936-0.193-1.27-0.528C7.892,10.434,7.701,9.97,7.701,9.498C7.701,9.025,7.893,8.563,8.228,8.227L8.228,8.227z"/>
	<path fill="#FFFFFF" d="M18.773,18.771c-0.336,0.334-0.797,0.526-1.271,0.526c-0.473,0-0.936-0.192-1.27-0.526
		c-0.336-0.336-0.527-0.797-0.527-1.271s0.191-0.937,0.527-1.271c0.334-0.336,0.797-0.526,1.27-0.526
		c0.475,0,0.938,0.19,1.271,0.526c0.334,0.334,0.525,0.797,0.525,1.271C19.3,17.977,19.107,18.438,18.773,18.771L18.773,18.771z"/>
	<path fill="#FFFFFF" d="M18.75,8.199c0.702,0.702,0.702,1.841,0,2.543l-7.956,7.955c-0.352,0.352-0.812,0.527-1.271,0.527
		s-0.921-0.177-1.271-0.527c-0.703-0.701-0.703-1.84,0-2.541l7.954-7.957C16.909,7.498,18.047,7.498,18.75,8.199L18.75,8.199z"/>
	<path fill="#4d4d4d" stroke="#231F20" stroke-width="2" stroke-miterlimit="10" d="M18.75,8.25"/>
</g>
</svg>
