<?xml version="1.0" encoding="utf-8"?>
<!-- Generator: Adobe Illustrator 16.0.0, SVG Export Plug-In . SVG Version: 6.00 Build 0)  -->
<!DOCTYPE svg PUBLIC "-//W3C//DTD SVG 1.1//EN" "http://www.w3.org/Graphics/SVG/1.1/DTD/svg11.dtd">
<svg version="1.1" id="Layer_1" xmlns="http://www.w3.org/2000/svg" xmlns:xlink="http://www.w3.org/1999/xlink" x="0px" y="0px"
	 width="27px" height="27px" viewBox="0 0 27 27" enable-background="new 0 0 27 27" xml:space="preserve">
<g>
	<g>
		<g>
			<path fill="#4d4d4d" d="M0.008,13.508c0,7.455,6.045,13.5,13.5,13.5c7.455,0,13.5-6.045,13.5-13.5c0-7.456-6.045-13.5-13.5-13.5
				C6.053,0.008,0.008,6.053,0.008,13.508L0.008,13.508z"/>
		</g>
		<path fill="#FFFFFF" stroke="#231F20" stroke-width="2" stroke-miterlimit="10" d="M18.757,8.259"/>
	</g>
	<g>
		<path fill="#FFFFFF" d="M13.594,12.788c1.833,0,3.32-1.74,3.32-3.887c0-2.976-1.487-3.886-3.32-3.886
			c-1.835,0-3.32,0.911-3.32,3.886C10.273,11.047,11.759,12.788,13.594,12.788L13.594,12.788z"/>
		<path fill="#FFFFFF" d="M20.926,18.507l-1.677-3.772c-0.076-0.174-0.211-0.315-0.377-0.403l-2.601-1.352
			c-0.058-0.031-0.127-0.025-0.179,0.015c-0.735,0.557-1.599,0.85-2.5,0.85c-0.9,0-1.765-0.293-2.499-0.85
			c-0.053-0.04-0.122-0.046-0.181-0.015L8.315,14.33c-0.168,0.088-0.301,0.23-0.379,0.404l-1.675,3.771
			c-0.115,0.262-0.092,0.559,0.064,0.799c0.154,0.236,0.416,0.381,0.701,0.381H20.16c0.285,0,0.547-0.145,0.701-0.381
			C21.018,19.064,21.041,18.768,20.926,18.507L20.926,18.507z"/>
	</g>
</g>
</svg>
