<svg xmlns="http://www.w3.org/2000/svg" viewBox="0 0 50 51">
    <path d="M29.9 29.7c1.3 0.3 2.9 0.5 3.8-0.3 1.6-1.5 2.4-4 2.8-5.9L29.9 29.7z"/>
    <path
        d="M44.5 12.8h-4L28 4.2c0.1-0.3 0.1-0.6 0.1-0.9 0.1-1.7-1.4-3.1-3.2-3.1s-3.3 1.4-3.3 3.1c0 0.3 0.1 0.6 0.1 0.9L9.3 12.8h-4c-3 0-5.4 2.3-5.4 5.3v27.5c0 2.9 2.4 5.3 5.4 5.3h39.2c3 0 5.4-2.3 5.4-5.3V18.1C49.9 15.1 47.5 12.8 44.5 12.8L44.5 12.8zM22.9 6.1c0.6 0.3 1.2 0.5 1.9 0.5s1.3-0.2 1.9-0.6l10 6.8H13L22.9 6.1zM36.4 42.8c0.4 0.4 0.4 1.1 0 1.5 -0.2 0.2-0.5 0.3-0.8 0.3s-0.6-0.1-0.8-0.3l-10-9.7 -10.1 9.7c-0.2 0.2-0.5 0.3-0.8 0.3s-0.6-0.1-0.8-0.3c-0.4-0.4-0.4-1.1 0-1.5l10.1-9.7 -1.8-1.7c-0.8 0.5-1.7 0.8-2.7 0.8 -1.6 0-3.4-0.7-5.2-2.4 -1.1-1.1-2.1-2.7-2.6-4.4 -0.6-2-0.3-3.7 0.7-4.7 2.3-2.2 7.3-0.4 9.5 1.8 2.9 2.8 3 5.6 1.7 7.5l1.8 1.7 12.3-11.8c0.3-0.3 0.8-0.4 1.2-0.2s0.7 0.6 0.7 1c0 0.3-0.2 6.8-3.7 10.2 -2 1.9-5.5 1-7 0.5l-1.8 1.8L36.4 42.8z"/>
    <path
        d="M19.7 23.8c-1.3-1.3-3.6-2.2-5.1-2.2 -0.6 0-1.1 0.1-1.3 0.4 -0.5 0.5-0.5 1.5-0.2 2.8 0.4 1.3 1.2 2.6 2 3.5 2.1 2 4.2 2.3 5.6 1C22.2 27.9 21.8 25.8 19.7 23.8L19.7 23.8z"/>
</svg>