<?xml version="1.0" encoding="utf-8"?>
<!-- Generator: Adobe Illustrator 16.0.0, SVG Export Plug-In . SVG Version: 6.00 Build 0)  -->
<!DOCTYPE svg PUBLIC "-//W3C//DTD SVG 1.1//EN" "http://www.w3.org/Graphics/SVG/1.1/DTD/svg11.dtd">
<svg version="1.1" id="Layer_1" xmlns="http://www.w3.org/2000/svg" xmlns:xlink="http://www.w3.org/1999/xlink" x="0px" y="0px"
	 width="27px" height="27px" viewBox="0 0 27 27" enable-background="new 0 0 27 27" xml:space="preserve">
<g>
	<g id="cogwheel_3_">
		<path d="M26.879,15.24C26.951,14.668,27,14.092,27,13.503c0-0.592-0.049-1.167-0.121-1.742l-3.566-0.892
			c-0.231-0.866-0.576-1.688-1.014-2.447l1.891-3.148c-0.711-0.922-1.541-1.748-2.463-2.46l-3.147,1.89
			C17.82,4.263,17,3.921,16.131,3.691L15.24,0.124C14.668,0.05,14.094,0,13.501,0c-0.592,0-1.166,0.05-1.738,0.124l-0.892,3.567
			C10.005,3.92,9.182,4.262,8.424,4.703L5.276,2.812c-0.924,0.714-1.75,1.539-2.46,2.462l1.888,3.148
			C4.263,9.18,3.92,10.003,3.691,10.869l-3.565,0.892C0.049,12.336,0,12.911,0,13.503c0,0.589,0.049,1.165,0.126,1.737l3.565,0.892
			c0.229,0.869,0.572,1.692,1.013,2.449l-1.891,3.146c0.712,0.922,1.539,1.752,2.459,2.461L8.425,22.3
			c0.758,0.438,1.582,0.78,2.447,1.013l0.892,3.567C12.335,26.951,12.91,27,13.501,27c0.592,0,1.167-0.049,1.739-0.12l0.891-3.567
			c0.871-0.233,1.693-0.574,2.451-1.016l3.148,1.891c0.924-0.709,1.75-1.537,2.463-2.459l-1.896-3.148
			c0.438-0.762,0.781-1.578,1.015-2.447L26.879,15.24z M13.501,18.223c-2.607,0-4.722-2.113-4.722-4.72
			c0-2.607,2.115-4.723,4.722-4.723c2.608,0,4.724,2.115,4.724,4.723C18.225,16.107,16.109,18.223,13.501,18.223z"/>
	</g>
</g>
</svg>
