<?xml version="1.0" encoding="utf-8"?>
<!-- Generator: Adobe Illustrator 16.0.0, SVG Export Plug-In . SVG Version: 6.00 Build 0)  -->
<!DOCTYPE svg PUBLIC "-//W3C//DTD SVG 1.1//EN" "http://www.w3.org/Graphics/SVG/1.1/DTD/svg11.dtd">
<svg version="1.1" id="Layer_1" xmlns="http://www.w3.org/2000/svg" xmlns:xlink="http://www.w3.org/1999/xlink" x="0px" y="0px"
	 width="27px" height="27px" viewBox="0 0 27 27" enable-background="new 0 0 27 27" xml:space="preserve">
<g>
	<path fill="#fbb03b" d="M13.5,0C5.999,0,0,5.999,0,13.5S5.999,27,13.5,27c1.201,0,2.25-1.047,2.25-2.25c0-0.6-0.148-1.047-0.602-1.5
		c-0.293-0.447-0.594-0.895-0.594-1.494c0-1.201,1.047-2.257,2.25-2.257h2.693c4.204,0,7.501-3.297,7.501-7.5
		C27,5.399,21.001,0,13.5,0L13.5,0z M5.252,13.5c-1.202,0-2.248-1.047-2.248-2.25c0-1.2,1.046-2.248,2.248-2.248
		c1.2,0,2.249,1.048,2.249,2.248C7.501,12.453,6.452,13.5,5.252,13.5L5.252,13.5z M9.75,7.501c-1.2,0-2.249-1.047-2.249-2.249
		c0-1.203,1.049-2.25,2.249-2.25c1.202,0,2.249,1.047,2.249,2.25C11.998,6.454,10.951,7.501,9.75,7.501L9.75,7.501z M17.251,7.501
		c-1.202,0-2.249-1.047-2.249-2.249c0-1.203,1.047-2.25,2.249-2.25c1.2,0,2.248,1.047,2.248,2.25
		C19.499,6.454,18.451,7.501,17.251,7.501L17.251,7.501z M21.756,13.5c-1.201,0-2.257-1.047-2.257-2.25
		c0-1.2,1.056-2.248,2.257-2.248c1.194,0,2.249,1.048,2.249,2.248C24.005,12.453,22.95,13.5,21.756,13.5L21.756,13.5z"/>
</g>
</svg>
